<?xml version="1.0" encoding="UTF-8" standalone="no"?>
<!-- Generator: Adobe Illustrator 18.0.0, SVG Export Plug-In . SVG Version: 6.00 Build 0)  -->

<svg
   xmlns:dc="http://purl.org/dc/elements/1.1/"
   xmlns:cc="http://creativecommons.org/ns#"
   xmlns:rdf="http://www.w3.org/1999/02/22-rdf-syntax-ns#"
   xmlns:svg="http://www.w3.org/2000/svg"
   xmlns="http://www.w3.org/2000/svg"
   xmlns:sodipodi="http://sodipodi.sourceforge.net/DTD/sodipodi-0.dtd"
   xmlns:inkscape="http://www.inkscape.org/namespaces/inkscape"
   version="1.1"
   id="Layer_1"
   x="0px"
   y="0px"
   viewBox="0 0 241.5 115.5"
   enable-background="new 0 0 241.5 115.5"
   xml:space="preserve"
   sodipodi:docname="logo-red.svg"
   inkscape:version="0.92.3 (2405546, 2018-03-11)"><metadata
   id="metadata31"><rdf:RDF><cc:Work
       rdf:about=""><dc:format>image/svg+xml</dc:format><dc:type
         rdf:resource="http://purl.org/dc/dcmitype/StillImage" /><dc:title></dc:title></cc:Work></rdf:RDF></metadata><defs
   id="defs29" /><sodipodi:namedview
   pagecolor="#ffffff"
   bordercolor="#666666"
   borderopacity="1"
   objecttolerance="10"
   gridtolerance="10"
   guidetolerance="10"
   inkscape:pageopacity="0"
   inkscape:pageshadow="2"
   inkscape:window-width="1600"
   inkscape:window-height="837"
   id="namedview27"
   showgrid="false"
   inkscape:zoom="1.1884058"
   inkscape:cx="120.75"
   inkscape:cy="57.75"
   inkscape:window-x="-8"
   inkscape:window-y="-8"
   inkscape:window-maximized="1"
   inkscape:current-layer="Layer_1" />
<g
   id="g24"
   style="fill:#57000c;fill-opacity:1">
	<g
   id="g14"
   style="fill:#57000c;fill-opacity:1">
		<path
   fill="#FFFFFF"
   d="M72.9,81.5c-1.4,0.7-2.6,1.6-3.9,2.6c-1.2,1.1-2.5,2.2-3.7,3.5c-1.2,1.2-2.5,2.6-3.9,3.9    c-1.3,1.4-2.8,2.7-4.4,3.9c-1.6,1.2-3.3,2.4-5.2,3.5c-1.9,1.1-4,2.2-6.3,3.1c-2.3,0.9-4.9,1.7-7.8,2.4s-6,1.2-9.5,1.5    c-3.9,0.3-7.5-0.1-10.7-1.3c-3.3-1.2-6.1-2.9-8.6-5.1c-2.4-2.2-4.4-4.9-5.9-8c-1.5-3.1-2.4-6.4-2.8-10c-0.2-2.5-0.2-5.1,0.1-8    c0.3-2.9,0.9-5.8,1.6-8.8c0.8-3,1.8-6.1,3.1-9.1c1.3-3.1,2.8-6,4.5-8.8c1.7-2.8,3.6-5.5,5.8-8c2.1-2.5,4.5-4.7,7-6.6    c2.5-1.9,5.2-3.5,8.1-4.7c2.9-1.2,5.9-1.9,9.1-2.2c2.1-0.2,4.2,0,6.4,0.5c2.2,0.5,4.2,1.4,6,2.7c1.8,1.3,3.4,2.9,4.7,5    c1.3,2.1,2.1,4.6,2.4,7.5c0.2,2,0,4-0.4,6.1c-0.5,2.1-1.2,4.1-2.2,6c-1,1.9-2.2,3.8-3.7,5.6c-1.4,1.8-3,3.3-4.7,4.6    c-1.7,1.3-3.5,2.4-5.5,3.3c-1.9,0.9-3.9,1.4-5.9,1.5c-2.6,0.2-4.6,0.1-6-0.5c-1.4-0.5-2.1-1.4-2.2-2.7c0-0.2-0.1-0.5-0.1-0.8    c0-0.3-0.1-0.6-0.1-0.9c0-0.5-0.1-1-0.1-1.5c0-0.5,0.1-1,0.2-1.4c0.1-0.4,0.3-0.8,0.7-1.1c0.3-0.3,0.7-0.5,1.3-0.5    c0.3,0,0.7,0,0.9,0.1c0.3,0.1,0.6,0.1,0.9,0.2c0.3,0.1,0.7,0.1,1.2,0.2c0.5,0.1,1,0.1,1.7,0c1.8-0.2,3.7-0.7,5.5-1.6    c1.8-0.9,3.4-2.1,4.8-3.6c1.4-1.5,2.5-3.2,3.2-5.2c0.8-2,1.1-4.1,0.8-6.3c-0.1-1.2-0.4-2.3-0.8-3.4c-0.4-1-1.1-1.9-2-2.7    c-0.9-0.7-1.9-1.3-3.2-1.7c-1.3-0.4-2.8-0.5-4.5-0.4c-2.1,0.2-4.1,0.8-5.9,1.8c-1.9,1-3.7,2.3-5.3,3.9c-1.7,1.6-3.2,3.5-4.7,5.6    c-1.4,2.1-2.7,4.4-3.9,6.8c-1.2,2.4-2.2,4.8-3,7.4c-0.9,2.5-1.6,5.1-2.1,7.6c-0.5,2.5-0.9,4.9-1.1,7.3c-0.2,2.3-0.2,4.5,0,6.4    c0.3,2.8,0.9,5.3,1.8,7.3c0.9,2,2.1,3.7,3.6,5c1.5,1.3,3.2,2.2,5.3,2.7c2,0.5,4.3,0.7,6.7,0.5c3-0.3,5.9-0.9,8.4-1.8    c2.6-0.9,5-2.1,7.2-3.5c2.3-1.4,4.5-2.9,6.5-4.6c2.1-1.7,4.2-3.4,6.3-5c2.1-1.7,4.2-3.3,6.4-4.9c2.2-1.6,4.5-2.9,7-4.1L72.9,81.5z    "
   id="path2"
   style="fill:#57000c;fill-opacity:1" />
		<path
   fill="#FFFFFF"
   d="M92.1,61.9c1,1.5,1.8,3.1,2.3,4.7c0.6,1.7,1,3.6,1.2,5.8c0.2,1.6,0.1,3.2-0.1,4.8    c-0.2,1.6-0.6,3.2-1.2,4.8c-0.6,1.5-1.3,3-2.2,4.4c-0.9,1.4-2,2.6-3.2,3.7c-1.2,1.1-2.6,1.9-4.1,2.6s-3.1,1.1-4.9,1.2    c-2.5,0.2-4.7-0.1-6.6-1c-1.9-0.9-3.5-2.1-4.8-3.6c-1.3-1.6-2.3-3.4-3.1-5.4c-0.7-2-1.2-4.1-1.4-6.2c-0.3-3.5-0.2-6.6,0.5-9.2    c0.7-2.6,1.8-4.9,3.4-7c1.6-2,3.6-3.7,6.1-5c2.5-1.3,5.3-2.1,8.5-2.3c2.7-0.2,5.3,0,7.8,0.5c2.5,0.6,4.8,1.5,7,2.6    c2.2,1.1,4.3,2.6,6.3,4.5c2,1.8,3.8,3.6,5.6,5.3l-0.3,5.7c-0.9-0.9-2-1.8-3.4-2.9c-1.4-1-3-2.1-4.6-3.4c-1.6-1.2-3.2-2.3-4.7-3.1    c-1.5-0.8-2.8-1.5-3.9-2.1L92.1,61.9z M81,86.2c1-0.1,1.9-0.6,2.7-1.6c0.8-1,1.5-2.2,2.1-3.7c0.6-1.5,0.9-3.2,1.2-5.2    c0.2-2,0.3-3.8,0.1-5.3c-0.1-1.2-0.3-2.4-0.6-3.4c-0.3-1-0.7-1.9-1.2-2.7c-0.5-0.7-1.1-1.3-1.7-1.7c-0.7-0.4-1.5-0.6-2.4-0.5    c-1.2,0.1-2.3,0.7-3.2,1.7c-1,1-1.8,2.3-2.5,3.8c-0.7,1.5-1.1,3.2-1.4,5c-0.3,1.8-0.3,3.8-0.1,6c0.1,1.1,0.3,2.2,0.6,3.1    c0.3,1,0.8,1.8,1.3,2.5c0.6,0.7,1.3,1.2,2.1,1.6C78.9,86.1,79.9,86.3,81,86.2z"
   id="path4"
   style="fill:#57000c;fill-opacity:1" />
		<path
   fill="#FFFFFF"
   d="M103.3,93.6c0-0.1-0.1-0.9-0.1-2.4c-0.1-1.5-0.1-3.5-0.1-6c0-2.5,0-5.4,0-8.6c0-3.3,0.1-6.7,0.3-10.4    c0.2-3.6,0.5-7.4,1-11.2c0.4-3.8,1-7.6,1.7-11.3c0.7-3.7,1.6-7.1,2.7-10.4c1.1-3.3,2.4-6.2,3.8-8.7c1.5-2.5,3.2-4.5,5.2-6.1    c2-1.6,4.2-2.4,6.8-2.6c1-0.1,2,0,3.1,0.2c1.1,0.2,2.1,0.6,3.1,1.3c1,0.6,1.8,1.5,2.5,2.6c0.7,1.1,1.1,2.5,1.3,4.2    c0.2,1.6,0.1,3.4-0.3,5.5c-0.4,2.1-0.9,4.3-1.7,6.7c-0.8,2.4-1.7,4.9-2.8,7.5c-1.1,2.6-2.3,5.2-3.7,7.8c-1.4,2.6-2.8,5.2-4.3,7.8    c-1.5,2.6-3.1,5-4.7,7.2l0,0.6c0.6-0.3,1-0.5,1.3-0.6c0.3-0.1,0.6-0.2,0.9-0.2c0.4,0,0.7,0,1,0c0.3,0,0.5,0.1,0.7,0.1    c0.2,0.1,0.4,0.1,0.6,0.1c0.2,0,0.5,0,0.8,0c2.8-0.2,5.3-0.8,7.5-1.6c2.1-0.8,3.9-1.7,5.3-2.5c1.7-1,3.1-2.2,4.3-3.4l0,9.8    c-1.8,1.1-3.7,2-5.7,2.8c-2,0.7-3.9,1.3-5.6,1.7c-2,0.5-4,0.8-6.1,1.1c1.3,1.7,2.5,3.4,3.5,5.2c0.9,1.6,1.8,3.3,2.6,5.3    c0.8,2,1.3,4,1.5,6c0,0.2,0,0.7,0,1.5c0,0.8,0,1.7-0.1,2.9c-0.1,1.1-0.2,2.4-0.4,3.8c-0.2,1.4-0.5,2.8-0.9,4.2    c-0.4,1.4-0.9,2.8-1.5,4.2c-0.6,1.4-1.4,2.6-2.3,3.6c-0.9,1.1-2,2-3.2,2.7c-1.3,0.7-2.7,1.1-4.4,1.3c-1.6,0.1-3-0.1-4.2-0.7    c-1.2-0.6-2.3-1.4-3.3-2.4c-0.9-1.1-1.8-2.3-2.5-3.8c-0.7-1.5-1.3-3-1.8-4.6c-0.5-1.6-0.9-3.3-1.2-5.1    C103.7,96.9,103.5,95.2,103.3,93.6z M112.7,71.6c-0.1,0-0.2,0.3-0.3,0.9c-0.1,0.6-0.1,1.4-0.1,2.3c0,0.9,0,2.2,0,4    c0,1.7,0,3.1,0,4.2c0,1.1,0,2.1,0.1,3.1c0,1,0.1,1.7,0.1,2.3c0.4,3.9,0.8,7,1.1,9.3c0.4,2.3,0.8,4,1.1,5.2    c0.4,1.2,0.7,1.9,1.1,2.3c0.3,0.3,0.7,0.5,1,0.5c1-0.1,1.7-0.6,2.2-1.4c0.5-0.9,0.9-2,1-3.2c0.2-1.3,0.3-2.7,0.2-4.2    c0-1.5-0.1-3-0.3-4.3c-0.1-0.9-0.2-2.1-0.4-3.4c-0.2-1.4-0.4-2.8-0.7-4.4c-0.3-1.6-0.7-3.3-1.2-5.3c-0.6-2-1.2-3.4-2-4.4    c-0.8-0.9-1.4-1.8-1.8-2.5C113.5,71.9,113,71.6,112.7,71.6z M119.6,29c-1.4,3.7-2.4,7.2-3.2,10.4c-0.7,3-1.2,5.7-1.5,8    c-0.3,2.3-0.4,4.3-0.5,6c0,1.7-0.1,3.3-0.2,4.8c1.5-3.2,3.2-6.3,4.9-9.4c1.7-3.1,3.1-5.9,4.4-8.6c1.2-2.7,2.3-5.2,3.1-7.7    c0.8-2.5,1.2-4.2,1.1-5.2c-0.1-1.4-0.4-2.4-0.9-3c-0.5-0.6-1.2-0.9-2.2-0.8c-1.6,0.1-2.6,0.5-3.1,1.2    C121,25.3,120.4,26.8,119.6,29z"
   id="path6"
   style="fill:#57000c;fill-opacity:1" />
		<path
   fill="#FFFFFF"
   d="M135.8,90.9c0-0.1-0.1-0.9-0.1-2.4c-0.1-1.5-0.1-3.5-0.1-6c0-2.5,0-5.4,0-8.6c0-3.3,0.1-6.7,0.3-10.4    c0.2-3.6,0.5-7.4,1-11.2c0.4-3.8,1-7.6,1.7-11.3c0.7-3.7,1.6-7.1,2.7-10.4c1.1-3.3,2.4-6.2,3.8-8.7c1.5-2.5,3.2-4.5,5.2-6.1    c2-1.6,4.2-2.4,6.8-2.6c1-0.1,2,0,3.1,0.2c1.1,0.2,2.1,0.6,3.1,1.3c1,0.6,1.8,1.5,2.5,2.6c0.7,1.1,1.1,2.5,1.3,4.2    c0.2,1.6,0.1,3.4-0.3,5.5c-0.4,2.1-0.9,4.3-1.7,6.7c-0.8,2.4-1.7,4.9-2.8,7.5c-1.1,2.6-2.3,5.2-3.7,7.8c-1.4,2.6-2.8,5.2-4.3,7.8    c-1.5,2.6-3.1,5-4.7,7.2l0,0.6c0.6-0.3,1-0.5,1.3-0.6c0.3-0.1,0.6-0.2,0.9-0.2c0.4,0,0.7,0,1,0c0.3,0,0.5,0.1,0.7,0.1    c0.2,0.1,0.4,0.1,0.6,0.1c0.2,0,0.5,0,0.8,0c2.8-0.2,5.3-0.8,7.5-1.6c2.1-0.8,3.9-1.7,5.3-2.5c1.7-1,3.1-2.2,4.3-3.4l0,9.8    c-1.8,1.1-3.7,2-5.7,2.8c-2,0.7-3.9,1.3-5.6,1.7c-2,0.5-4,0.8-6.1,1.1c1.3,1.7,2.5,3.4,3.5,5.2c0.9,1.6,1.8,3.3,2.6,5.3    c0.8,2,1.3,4,1.5,6c0,0.2,0,0.7,0,1.5c0,0.8,0,1.7-0.1,2.9c-0.1,1.1-0.2,2.4-0.4,3.8c-0.2,1.4-0.5,2.8-0.9,4.2    c-0.4,1.4-0.9,2.8-1.5,4.2c-0.6,1.4-1.4,2.6-2.3,3.6c-0.9,1.1-2,2-3.2,2.7c-1.3,0.7-2.7,1.1-4.4,1.3c-1.6,0.1-3-0.1-4.2-0.7    c-1.2-0.6-2.3-1.4-3.3-2.4c-0.9-1.1-1.8-2.3-2.5-3.8c-0.7-1.5-1.3-3-1.8-4.6c-0.5-1.6-0.9-3.3-1.2-5.1    C136.2,94.2,136,92.5,135.8,90.9z M145.2,68.9c-0.1,0-0.2,0.3-0.3,0.9c-0.1,0.6-0.1,1.4-0.1,2.3c0,0.9,0,2.2,0,4    c0,1.7,0,3.1,0,4.2c0,1.1,0,2.1,0.1,3.1c0,1,0.1,1.7,0.1,2.3c0.4,3.9,0.8,7,1.1,9.3c0.4,2.3,0.8,4,1.1,5.2    c0.4,1.2,0.7,1.9,1.1,2.3c0.3,0.3,0.7,0.5,1,0.5c1-0.1,1.7-0.6,2.2-1.4c0.5-0.9,0.9-2,1-3.2c0.2-1.3,0.3-2.7,0.2-4.2    c0-1.5-0.1-3-0.3-4.3c-0.1-0.9-0.2-2.1-0.4-3.4c-0.2-1.4-0.4-2.8-0.7-4.4c-0.3-1.6-0.7-3.3-1.2-5.3c-0.6-2-1.2-3.4-2-4.4    c-0.8-0.9-1.4-1.8-1.8-2.5C146,69.2,145.6,68.9,145.2,68.9z M152.1,26.3c-1.4,3.7-2.4,7.2-3.2,10.4c-0.7,3-1.2,5.7-1.5,8    c-0.3,2.3-0.4,4.3-0.5,6c0,1.7-0.1,3.3-0.2,4.8c1.5-3.2,3.2-6.3,4.9-9.4c1.7-3.1,3.1-5.9,4.4-8.6c1.2-2.7,2.3-5.2,3.1-7.7    c0.8-2.5,1.2-4.2,1.1-5.2c-0.1-1.4-0.4-2.4-0.9-3c-0.5-0.6-1.2-0.9-2.2-0.8c-1.6,0.1-2.6,0.5-3.1,1.2    C153.5,22.7,152.9,24.1,152.1,26.3z"
   id="path8"
   style="fill:#57000c;fill-opacity:1" />
		<path
   fill="#FFFFFF"
   d="M185.3,85.3c-2.7,0.2-5.1,0-7.2-0.8c-2.1-0.8-3.9-1.9-5.4-3.3c-1.5-1.4-2.7-3.2-3.5-5.2    c-0.9-2-1.4-4.1-1.6-6.4c-0.1-1.5,0-3.2,0.4-5.3c0.4-2.1,0.9-3.9,1.3-5.6c0.5-1.6,1.2-3.2,2-4.7c0.8-1.5,1.8-2.9,3-4.1    c1.2-1.2,2.6-2.2,4.1-3c1.6-0.8,3.3-1.2,5.3-1.4c1.6-0.1,3.1,0,4.6,0.3c1.4,0.4,2.7,0.9,3.8,1.7c1.1,0.8,2,1.8,2.7,2.9    c0.7,1.2,1.1,2.5,1.3,4c0.2,1.6-0.3,3.5-1.2,5.6c-1,2.1-2.2,3.9-3.6,5.5c-1.4,1.6-3.1,3-5.2,4.3c-2,1.3-4.3,2.4-6.7,3.2    c0.5,0.7,1,1.2,1.4,1.7c0.5,0.4,0.9,0.8,1.4,1c0.5,0.2,0.9,0.4,1.4,0.4c0.5,0.1,1,0.1,1.6,0c1.7-0.1,3.5-0.6,5.4-1.4    c1.9-0.8,3.6-1.7,5.4-2.8c1.7-1.1,3.3-2.2,4.8-3.5c1.5-1.2,2.8-2.4,3.8-3.5l6.1,4.8c-2.3,2.7-4.8,5.1-7.4,7.3    c-1.2,0.9-2.4,1.8-3.8,2.8c-1.3,0.9-2.8,1.7-4.3,2.5c-1.5,0.7-3.1,1.4-4.7,1.9C188.7,84.8,187,85.1,185.3,85.3z M177.7,66.7    c1-0.1,2.1-0.4,3.3-1c1.2-0.6,2.3-1.3,3.2-2.1c1-0.8,1.9-1.9,2.8-3.3c0.9-1.4,1.3-2.5,1.2-3.3c-0.1-1.2-0.4-2.1-1-2.8    c-0.5-0.7-1.2-1-1.9-1c-1.2,0.1-2.3,0.4-3.1,0.9c-0.8,0.5-1.5,1.1-2.1,1.8c-0.5,0.7-0.9,1.5-1.2,2.4c-0.3,0.9-0.6,2-1,3.2    c-0.4,1.3-0.5,2.3-0.5,3.2C177.6,65.5,177.6,66.1,177.7,66.7z"
   id="path10"
   style="fill:#57000c;fill-opacity:1" />
		<path
   fill="#FFFFFF"
   d="M217.8,82.6c-2.7,0.2-5.1,0-7.2-0.8c-2.1-0.8-3.9-1.9-5.4-3.3c-1.5-1.4-2.7-3.2-3.5-5.2    c-0.9-2-1.4-4.1-1.6-6.4c-0.1-1.5,0-3.2,0.4-5.3c0.4-2.1,0.9-3.9,1.3-5.6c0.5-1.6,1.2-3.2,2-4.7c0.8-1.5,1.8-2.9,3-4.1    c1.2-1.2,2.6-2.2,4.1-3c1.6-0.8,3.3-1.2,5.3-1.4c1.6-0.1,3.1,0,4.6,0.3c1.4,0.4,2.7,0.9,3.8,1.7c1.1,0.8,2,1.8,2.7,2.9    c0.7,1.2,1.1,2.5,1.3,4c0.2,1.6-0.3,3.5-1.2,5.6c-1,2.1-2.2,3.9-3.6,5.5c-1.4,1.6-3.1,3-5.2,4.3c-1.5,1-3.1,1.8-4.8,2.5    c-1,0.4-1.2,1.6-0.5,2.4c0,0,0,0,0,0c0.5,0.4,0.9,0.8,1.4,1c0.5,0.2,0.9,0.4,1.4,0.4c0.5,0.1,1,0.1,1.6,0c1.7-0.1,3.5-0.6,5.4-1.4    c1.9-0.8,3.6-1.7,5.4-2.8c1.7-1.1,3.3-2.2,4.8-3.5c0.5-0.4,1-0.8,1.4-1.2c1.4-1.3,3.6-1.3,5.1-0.1l0,0c1.9,1.5,2,4.3,0.3,6    c-1.4,1.4-2.9,2.7-4.4,4c-1.2,0.9-2.4,1.8-3.8,2.8c-1.3,0.9-2.8,1.7-4.3,2.5c-1.5,0.7-3.1,1.4-4.7,1.9    C221.2,82.1,219.5,82.4,217.8,82.6z M210.1,62.3c0,1,1,1.6,1.9,1.3c0.5-0.2,1-0.4,1.5-0.6c1.2-0.6,2.3-1.3,3.2-2.1    c1-0.8,1.9-1.9,2.8-3.3c0.9-1.4,1.3-2.5,1.2-3.3c-0.1-1.2-0.4-2.1-1-2.8c-0.5-0.7-1.2-1-1.9-1c-1.2,0.1-2.3,0.4-3.1,0.9    s-1.5,1.1-2.1,1.8c-0.5,0.7-0.9,1.5-1.2,2.4c-0.3,0.9-0.6,2-1,3.2c-0.4,1.3-0.5,2.3-0.5,3.2C210.1,62.1,210.1,62.2,210.1,62.3z"
   id="path12"
   style="fill:#57000c;fill-opacity:1" />
	</g>
	<g
   id="g22"
   style="fill:#57000c;fill-opacity:1">
		<path
   fill="#FFFFFF"
   d="M74.9,31.1h-2.3v2.5h2.3c0.8,0,1.3-0.4,1.3-1.1v-0.4C76.1,31.4,75.7,31.1,74.9,31.1z"
   id="path16"
   style="fill:#57000c;fill-opacity:1" />
		<path
   fill="#FFFFFF"
   d="M72.5,14.2v14.3c0.8-0.7,1.4-1.3,1.8-1.8c1.2-1.6,1.8-3.4,1.8-5.2c0-1.9-0.6-3.7-1.8-5.4    C74,15.5,73.4,14.9,72.5,14.2z"
   id="path18"
   style="fill:#57000c;fill-opacity:1" />
		<path
   fill="#FFFFFF"
   d="M82.6,0.3h-0.4c-13.5,0-24.4,10.9-24.4,24.4v0c0,13.5,10.9,24.4,24.4,24.4h0.4c13.5,0,24.4-10.9,24.4-24.4    v0C107,11.2,96.1,0.3,82.6,0.3z M78.2,29.6c0.5,0.5,0.7,1.2,0.7,2.1v1.2c0,1.1-0.4,1.9-1.1,2.6c-0.8,0.6-1.8,1-3.1,1h-4.8v-5.3    h-2.4l-1.6-2.6h4V9.6c0.3,0,1.1,0.3,2.3,1c1.8,1,3.3,2.1,4.4,3.5c1.6,2,2.4,4.3,2.4,7c0,2.7-1,5.1-2.9,7.3    C77,28.7,77.7,29.1,78.2,29.6z M84.7,36.4h-2.8V10.8h2.8V36.4z M96.9,12.5c-0.2,0-0.8,0.3-1.8,0.9c-1.4,0.9-2.5,2-3.4,3.3    c-1.2,1.9-1.8,4-1.8,6.5c0,2.5,0.7,4.7,2.1,6.8c0.5,0.7,1.2,1.4,2.1,2.3v-8.8h2.8V37c-0.3,0-1.2-0.4-2.5-1.1    c-1.9-1.1-3.5-2.5-4.7-4.2c-1.7-2.4-2.6-5.2-2.6-8.4c0-3.1,0.8-5.8,2.5-8.1c1.2-1.7,2.8-3.1,4.7-4.3c1.3-0.8,2.2-1.2,2.6-1.2V12.5    z"
   id="path20"
   style="fill:#57000c;fill-opacity:1" />
	</g>
</g>
</svg>