<?xml version="1.0" encoding="UTF-8" standalone="no"?>
<!-- Generator: Adobe Illustrator 18.0.0, SVG Export Plug-In . SVG Version: 6.00 Build 0)  -->

<svg
   xmlns:dc="http://purl.org/dc/elements/1.1/"
   xmlns:cc="http://creativecommons.org/ns#"
   xmlns:rdf="http://www.w3.org/1999/02/22-rdf-syntax-ns#"
   xmlns:svg="http://www.w3.org/2000/svg"
   xmlns="http://www.w3.org/2000/svg"
   xmlns:sodipodi="http://sodipodi.sourceforge.net/DTD/sodipodi-0.dtd"
   xmlns:inkscape="http://www.inkscape.org/namespaces/inkscape"
   version="1.1"
   id="Layer_1"
   x="0px"
   y="0px"
   viewBox="0 0 98.5 69.6"
   enable-background="new 0 0 98.5 69.6"
   xml:space="preserve"
   sodipodi:docname="xicara.svg"
   inkscape:version="0.92.3 (2405546, 2018-03-11)"><metadata
   id="metadata11"><rdf:RDF><cc:Work
       rdf:about=""><dc:format>image/svg+xml</dc:format><dc:type
         rdf:resource="http://purl.org/dc/dcmitype/StillImage" /></cc:Work></rdf:RDF></metadata><defs
   id="defs9" /><sodipodi:namedview
   pagecolor="#ffffff"
   bordercolor="#666666"
   borderopacity="1"
   objecttolerance="10"
   gridtolerance="10"
   guidetolerance="10"
   inkscape:pageopacity="0"
   inkscape:pageshadow="2"
   inkscape:window-width="1920"
   inkscape:window-height="1017"
   id="namedview7"
   showgrid="false"
   inkscape:zoom="2.9137056"
   inkscape:cx="-6.5209059"
   inkscape:cy="34.799999"
   inkscape:window-x="-8"
   inkscape:window-y="-8"
   inkscape:window-maximized="1"
   inkscape:current-layer="Layer_1" />
<path
   fill="#761A1D"
   d="M42,57.5c12,0,22.6-5.7,29.5-14.6c2,1,4.3,1.5,6.7,1.5c8.8,0,15.9-7.2,15.9-16.1c0-8.7-6.7-15.8-15.2-16.1  c0,0,0,0,0,0H5.1c-0.4,2.3-0.7,4.7-0.7,7.2C4.4,40.4,21.2,57.5,42,57.5L42,57.5z M79.5,19.3C79.5,19.3,79.5,19.3,79.5,19.3  c4.3,0.6,7.6,4.4,7.6,9c0,5-4,9.1-9,9.1c-1,0-2-0.2-2.9-0.5C78,31.6,79.5,25.6,79.5,19.3L79.5,19.3z M79.5,19.3"
   id="path2"
   style="fill:#7c0010;fill-opacity:1" />
<path
   fill="#541313"
   d="M42,57.5c12,0,22.6-5.7,29.5-14.6c2,1,4.3,1.5,6.7,1.5c8.8,0,15.9-7.2,15.9-16.1c0-8.7-6.7-15.8-15.2-16.1  c0,0,0,0,0,0l-36.9,0C42,12.1,42,33.3,42,57.5L42,57.5z M79.5,19.3C79.5,19.3,79.5,19.3,79.5,19.3c4.3,0.6,7.6,4.4,7.6,9  c0,5-4,9.1-9,9.1c-1,0-2-0.2-2.9-0.5C78,31.6,79.5,25.6,79.5,19.3L79.5,19.3z M79.5,19.3"
   id="path4"
   style="fill:#57000c;fill-opacity:1" />
</svg>